<?xml version="1.0" encoding="UTF-8" standalone="no"?>
<!DOCTYPE svg PUBLIC "-//W3C//DTD SVG 1.1//EN"
 "http://www.w3.org/Graphics/SVG/1.1/DTD/svg11.dtd">
<!-- Generated by graphviz version 14.0.1 (20251006.0113)
 -->
<!-- Pages: 1 -->
<svg width="399pt" height="548pt"
 viewBox="0.00 0.00 399.00 548.00" xmlns="http://www.w3.org/2000/svg" xmlns:xlink="http://www.w3.org/1999/xlink">
<g id="graph0" class="graph" transform="scale(1 1) rotate(0) translate(4 544)">
<polygon fill="white" stroke="none" points="-4,4 -4,-544 395,-544 395,4 -4,4"/>
<!-- node1916975080912 -->
<g id="node1" class="node">
<title>node1916975080912</title>
<ellipse fill="none" stroke="black" cx="184" cy="-522" rx="39.58" ry="18"/>
<text xml:space="preserve" text-anchor="middle" x="184" y="-516.95" font-family="Times New Roman,serif" font-size="14.00">group 0</text>
</g>
<!-- node1916975080864 -->
<g id="node2" class="node">
<title>node1916975080864</title>
<ellipse fill="none" stroke="black" cx="184" cy="-450" rx="27" ry="18"/>
<text xml:space="preserve" text-anchor="middle" x="184" y="-444.95" font-family="Times New Roman,serif" font-size="14.00">|</text>
</g>
<!-- node1916975080912&#45;&#45;node1916975080864 -->
<g id="edge1" class="edge">
<title>node1916975080912&#45;&#45;node1916975080864</title>
<path fill="none" stroke="black" d="M184,-503.7C184,-492.85 184,-478.92 184,-468.1"/>
</g>
<!-- node1916975080720 -->
<g id="node3" class="node">
<title>node1916975080720</title>
<ellipse fill="none" stroke="black" cx="148" cy="-378" rx="27" ry="18"/>
<text xml:space="preserve" text-anchor="middle" x="148" y="-372.95" font-family="Times New Roman,serif" font-size="14.00">·</text>
</g>
<!-- node1916975080864&#45;&#45;node1916975080720 -->
<g id="edge2" class="edge">
<title>node1916975080864&#45;&#45;node1916975080720</title>
<path fill="none" stroke="black" d="M175.65,-432.76C169.83,-421.46 162.11,-406.44 156.3,-395.15"/>
</g>
<!-- node1916975080816 -->
<g id="node4" class="node">
<title>node1916975080816</title>
<ellipse fill="none" stroke="black" cx="220" cy="-378" rx="27" ry="18"/>
<text xml:space="preserve" text-anchor="middle" x="220" y="-372.95" font-family="Times New Roman,serif" font-size="14.00">·</text>
</g>
<!-- node1916975080864&#45;&#45;node1916975080816 -->
<g id="edge3" class="edge">
<title>node1916975080864&#45;&#45;node1916975080816</title>
<path fill="none" stroke="black" d="M192.35,-432.76C198.17,-421.46 205.89,-406.44 211.7,-395.15"/>
</g>
<!-- node1916975080624 -->
<g id="node5" class="node">
<title>node1916975080624</title>
<ellipse fill="none" stroke="black" cx="70" cy="-306" rx="27" ry="18"/>
<text xml:space="preserve" text-anchor="middle" x="70" y="-300.95" font-family="Times New Roman,serif" font-size="14.00">*</text>
</g>
<!-- node1916975080720&#45;&#45;node1916975080624 -->
<g id="edge4" class="edge">
<title>node1916975080720&#45;&#45;node1916975080624</title>
<path fill="none" stroke="black" d="M132.59,-363.17C119,-350.98 99.3,-333.3 85.65,-321.04"/>
</g>
<!-- node1916975080672 -->
<g id="node6" class="node">
<title>node1916975080672</title>
<ellipse fill="none" stroke="black" cx="148" cy="-306" rx="27" ry="18"/>
<text xml:space="preserve" text-anchor="middle" x="148" y="-300.95" font-family="Times New Roman,serif" font-size="14.00">·</text>
</g>
<!-- node1916975080720&#45;&#45;node1916975080672 -->
<g id="edge5" class="edge">
<title>node1916975080720&#45;&#45;node1916975080672</title>
<path fill="none" stroke="black" d="M148,-359.7C148,-348.85 148,-334.92 148,-324.1"/>
</g>
<!-- node1916975080192 -->
<g id="node17" class="node">
<title>node1916975080192</title>
<ellipse fill="none" stroke="black" cx="220" cy="-306" rx="27" ry="18"/>
<text xml:space="preserve" text-anchor="middle" x="220" y="-300.95" font-family="Times New Roman,serif" font-size="14.00">b</text>
</g>
<!-- node1916975080816&#45;&#45;node1916975080192 -->
<g id="edge16" class="edge">
<title>node1916975080816&#45;&#45;node1916975080192</title>
<path fill="none" stroke="black" d="M220,-359.7C220,-348.85 220,-334.92 220,-324.1"/>
</g>
<!-- node1916975080768 -->
<g id="node18" class="node">
<title>node1916975080768</title>
<ellipse fill="none" stroke="black" cx="292" cy="-306" rx="27" ry="18"/>
<text xml:space="preserve" text-anchor="middle" x="292" y="-300.95" font-family="Times New Roman,serif" font-size="14.00">·</text>
</g>
<!-- node1916975080816&#45;&#45;node1916975080768 -->
<g id="edge17" class="edge">
<title>node1916975080816&#45;&#45;node1916975080768</title>
<path fill="none" stroke="black" d="M234.92,-362.5C247.28,-350.48 264.75,-333.49 277.1,-321.49"/>
</g>
<!-- node1916975080576 -->
<g id="node7" class="node">
<title>node1916975080576</title>
<ellipse fill="none" stroke="black" cx="63" cy="-234" rx="39.58" ry="18"/>
<text xml:space="preserve" text-anchor="middle" x="63" y="-228.95" font-family="Times New Roman,serif" font-size="14.00">group 1</text>
</g>
<!-- node1916975080624&#45;&#45;node1916975080576 -->
<g id="edge6" class="edge">
<title>node1916975080624&#45;&#45;node1916975080576</title>
<path fill="none" stroke="black" d="M68.27,-287.7C67.18,-276.85 65.79,-262.92 64.71,-252.1"/>
</g>
<!-- node1916935244592 -->
<g id="node13" class="node">
<title>node1916935244592</title>
<ellipse fill="none" stroke="black" cx="148" cy="-234" rx="27" ry="18"/>
<text xml:space="preserve" text-anchor="middle" x="148" y="-228.95" font-family="Times New Roman,serif" font-size="14.00">b</text>
</g>
<!-- node1916975080672&#45;&#45;node1916935244592 -->
<g id="edge12" class="edge">
<title>node1916975080672&#45;&#45;node1916935244592</title>
<path fill="none" stroke="black" d="M148,-287.7C148,-276.85 148,-262.92 148,-252.1"/>
</g>
<!-- node1916975080480 -->
<g id="node14" class="node">
<title>node1916975080480</title>
<ellipse fill="none" stroke="black" cx="220" cy="-234" rx="27" ry="18"/>
<text xml:space="preserve" text-anchor="middle" x="220" y="-228.95" font-family="Times New Roman,serif" font-size="14.00">·</text>
</g>
<!-- node1916975080672&#45;&#45;node1916975080480 -->
<g id="edge13" class="edge">
<title>node1916975080672&#45;&#45;node1916975080480</title>
<path fill="none" stroke="black" d="M162.92,-290.5C175.28,-278.48 192.75,-261.49 205.1,-249.49"/>
</g>
<!-- node1916975080528 -->
<g id="node8" class="node">
<title>node1916975080528</title>
<ellipse fill="none" stroke="black" cx="63" cy="-162" rx="27" ry="18"/>
<text xml:space="preserve" text-anchor="middle" x="63" y="-156.95" font-family="Times New Roman,serif" font-size="14.00">·</text>
</g>
<!-- node1916975080576&#45;&#45;node1916975080528 -->
<g id="edge7" class="edge">
<title>node1916975080576&#45;&#45;node1916975080528</title>
<path fill="none" stroke="black" d="M63,-215.7C63,-204.85 63,-190.92 63,-180.1"/>
</g>
<!-- node1916975079472 -->
<g id="node9" class="node">
<title>node1916975079472</title>
<ellipse fill="none" stroke="black" cx="27" cy="-90" rx="27" ry="18"/>
<text xml:space="preserve" text-anchor="middle" x="27" y="-84.95" font-family="Times New Roman,serif" font-size="14.00">f</text>
</g>
<!-- node1916975080528&#45;&#45;node1916975079472 -->
<g id="edge8" class="edge">
<title>node1916975080528&#45;&#45;node1916975079472</title>
<path fill="none" stroke="black" d="M54.65,-144.76C48.83,-133.46 41.11,-118.44 35.3,-107.15"/>
</g>
<!-- node1916943759120 -->
<g id="node10" class="node">
<title>node1916943759120</title>
<ellipse fill="none" stroke="black" cx="99" cy="-90" rx="27" ry="18"/>
<text xml:space="preserve" text-anchor="middle" x="99" y="-84.95" font-family="Times New Roman,serif" font-size="14.00">·</text>
</g>
<!-- node1916975080528&#45;&#45;node1916943759120 -->
<g id="edge9" class="edge">
<title>node1916975080528&#45;&#45;node1916943759120</title>
<path fill="none" stroke="black" d="M71.35,-144.76C77.17,-133.46 84.89,-118.44 90.7,-107.15"/>
</g>
<!-- node1916975079568 -->
<g id="node11" class="node">
<title>node1916975079568</title>
<ellipse fill="none" stroke="black" cx="63" cy="-18" rx="27" ry="18"/>
<text xml:space="preserve" text-anchor="middle" x="63" y="-12.95" font-family="Times New Roman,serif" font-size="14.00">o</text>
</g>
<!-- node1916943759120&#45;&#45;node1916975079568 -->
<g id="edge10" class="edge">
<title>node1916943759120&#45;&#45;node1916975079568</title>
<path fill="none" stroke="black" d="M90.65,-72.76C84.83,-61.46 77.11,-46.44 71.3,-35.15"/>
</g>
<!-- node1916975079616 -->
<g id="node12" class="node">
<title>node1916975079616</title>
<ellipse fill="none" stroke="black" cx="135" cy="-18" rx="27" ry="18"/>
<text xml:space="preserve" text-anchor="middle" x="135" y="-12.95" font-family="Times New Roman,serif" font-size="14.00">o</text>
</g>
<!-- node1916943759120&#45;&#45;node1916975079616 -->
<g id="edge11" class="edge">
<title>node1916943759120&#45;&#45;node1916975079616</title>
<path fill="none" stroke="black" d="M107.35,-72.76C113.17,-61.46 120.89,-46.44 126.7,-35.15"/>
</g>
<!-- node1916975079904 -->
<g id="node15" class="node">
<title>node1916975079904</title>
<ellipse fill="none" stroke="black" cx="184" cy="-162" rx="27" ry="18"/>
<text xml:space="preserve" text-anchor="middle" x="184" y="-156.95" font-family="Times New Roman,serif" font-size="14.00">a</text>
</g>
<!-- node1916975080480&#45;&#45;node1916975079904 -->
<g id="edge14" class="edge">
<title>node1916975080480&#45;&#45;node1916975079904</title>
<path fill="none" stroke="black" d="M211.65,-216.76C205.83,-205.46 198.11,-190.44 192.3,-179.15"/>
</g>
<!-- node1916975079952 -->
<g id="node16" class="node">
<title>node1916975079952</title>
<ellipse fill="none" stroke="black" cx="256" cy="-162" rx="27" ry="18"/>
<text xml:space="preserve" text-anchor="middle" x="256" y="-156.95" font-family="Times New Roman,serif" font-size="14.00">r</text>
</g>
<!-- node1916975080480&#45;&#45;node1916975079952 -->
<g id="edge15" class="edge">
<title>node1916975080480&#45;&#45;node1916975079952</title>
<path fill="none" stroke="black" d="M228.35,-216.76C234.17,-205.46 241.89,-190.44 247.7,-179.15"/>
</g>
<!-- node1916975080288 -->
<g id="node19" class="node">
<title>node1916975080288</title>
<ellipse fill="none" stroke="black" cx="292" cy="-234" rx="27" ry="18"/>
<text xml:space="preserve" text-anchor="middle" x="292" y="-228.95" font-family="Times New Roman,serif" font-size="14.00">a</text>
</g>
<!-- node1916975080768&#45;&#45;node1916975080288 -->
<g id="edge18" class="edge">
<title>node1916975080768&#45;&#45;node1916975080288</title>
<path fill="none" stroke="black" d="M292,-287.7C292,-276.85 292,-262.92 292,-252.1"/>
</g>
<!-- node1916975080336 -->
<g id="node20" class="node">
<title>node1916975080336</title>
<ellipse fill="none" stroke="black" cx="364" cy="-234" rx="27" ry="18"/>
<text xml:space="preserve" text-anchor="middle" x="364" y="-228.95" font-family="Times New Roman,serif" font-size="14.00">z</text>
</g>
<!-- node1916975080768&#45;&#45;node1916975080336 -->
<g id="edge19" class="edge">
<title>node1916975080768&#45;&#45;node1916975080336</title>
<path fill="none" stroke="black" d="M306.92,-290.5C319.28,-278.48 336.75,-261.49 349.1,-249.49"/>
</g>
</g>
</svg>
