<?xml version="1.0" encoding="UTF-8" standalone="no"?>
<!DOCTYPE svg PUBLIC "-//W3C//DTD SVG 1.1//EN"
 "http://www.w3.org/Graphics/SVG/1.1/DTD/svg11.dtd">
<!-- Generated by graphviz version 14.0.1 (20251006.0113)
 -->
<!-- Pages: 1 -->
<svg width="642pt" height="212pt"
 viewBox="0.00 0.00 642.00 212.00" xmlns="http://www.w3.org/2000/svg" xmlns:xlink="http://www.w3.org/1999/xlink">
<g id="graph0" class="graph" transform="scale(1 1) rotate(0) translate(4 208.13)">
<polygon fill="white" stroke="none" points="-4,4 -4,-208.13 637.81,-208.13 637.81,4 -4,4"/>
<g id="node1" class="node">
<title></title>
</g>
<!-- 18 -->
<g id="node11" class="node">
<title>18</title>
<ellipse fill="none" stroke="black" cx="111.13" cy="-80.13" rx="20.13" ry="20.13"/>
<text xml:space="preserve" text-anchor="middle" x="111.13" y="-75.08" font-family="Times New Roman,serif" font-size="14.00">18</text>
</g>
<!-- &#45;&gt;18 -->
<g id="edge1" class="edge">
<title>&#45;&gt;18</title>
<path fill="none" stroke="black" d="M53.99,-80.13C62.04,-80.13 70.98,-80.13 79.33,-80.13"/>
<polygon fill="black" stroke="black" points="79.05,-83.63 89.05,-80.13 79.05,-76.63 79.05,-83.63"/>
</g>
<!-- 1 -->
<g id="node2" class="node">
<title>1</title>
<ellipse fill="none" stroke="black" cx="194.14" cy="-133.13" rx="18" ry="18"/>
<text xml:space="preserve" text-anchor="middle" x="194.14" y="-128.08" font-family="Times New Roman,serif" font-size="14.00">1</text>
</g>
<!-- 3 -->
<g id="node3" class="node">
<title>3</title>
<ellipse fill="none" stroke="black" cx="277.16" cy="-186.13" rx="18" ry="18"/>
<text xml:space="preserve" text-anchor="middle" x="277.16" y="-181.08" font-family="Times New Roman,serif" font-size="14.00">3</text>
</g>
<!-- 1&#45;&gt;3 -->
<g id="edge2" class="edge">
<title>1&#45;&gt;3</title>
<path fill="none" stroke="black" d="M209.63,-142.61C221.42,-150.32 238.31,-161.37 252.13,-170.41"/>
<polygon fill="black" stroke="black" points="249.97,-173.18 260.26,-175.73 253.81,-167.33 249.97,-173.18"/>
<text xml:space="preserve" text-anchor="middle" x="235.65" y="-164.42" font-family="Times New Roman,serif" font-size="14.00">o</text>
</g>
<!-- 5 -->
<g id="node4" class="node">
<title>5</title>
<ellipse fill="none" stroke="black" cx="364.17" cy="-133.13" rx="18" ry="18"/>
<text xml:space="preserve" text-anchor="middle" x="364.17" y="-128.08" font-family="Times New Roman,serif" font-size="14.00">5</text>
</g>
<!-- 3&#45;&gt;5 -->
<g id="edge3" class="edge">
<title>3&#45;&gt;5</title>
<path fill="none" stroke="black" d="M292.96,-176.9C305.56,-169.04 323.92,-157.6 338.7,-148.39"/>
<polygon fill="black" stroke="black" points="340.33,-151.5 346.96,-143.24 336.62,-145.56 340.33,-151.5"/>
<text xml:space="preserve" text-anchor="middle" x="318.66" y="-166" font-family="Times New Roman,serif" font-size="14.00">o</text>
</g>
<!-- 5&#45;&gt;1 -->
<g id="edge4" class="edge">
<title>5&#45;&gt;1</title>
<path fill="none" stroke="black" d="M346.16,-133.13C317.45,-133.13 259.04,-133.13 223.88,-133.13"/>
<polygon fill="black" stroke="black" points="224.01,-129.63 214.01,-133.13 224.01,-136.63 224.01,-129.63"/>
<text xml:space="preserve" text-anchor="middle" x="277.16" y="-136.33" font-family="Times New Roman,serif" font-size="14.00">f</text>
</g>
<!-- 7 -->
<g id="node5" class="node">
<title>7</title>
<ellipse fill="none" stroke="black" cx="449.05" cy="-96.13" rx="18" ry="18"/>
<text xml:space="preserve" text-anchor="middle" x="449.05" y="-91.08" font-family="Times New Roman,serif" font-size="14.00">7</text>
</g>
<!-- 5&#45;&gt;7 -->
<g id="edge5" class="edge">
<title>5&#45;&gt;7</title>
<path fill="none" stroke="black" d="M381.15,-126C392.61,-120.88 408.33,-113.86 421.64,-107.92"/>
<polygon fill="black" stroke="black" points="423.03,-111.13 430.74,-103.86 420.18,-104.74 423.03,-111.13"/>
<text xml:space="preserve" text-anchor="middle" x="409.67" y="-117.83" font-family="Times New Roman,serif" font-size="14.00">b</text>
</g>
<!-- 9 -->
<g id="node6" class="node">
<title>9</title>
<ellipse fill="none" stroke="black" cx="527.05" cy="-96.13" rx="18" ry="18"/>
<text xml:space="preserve" text-anchor="middle" x="527.05" y="-91.08" font-family="Times New Roman,serif" font-size="14.00">9</text>
</g>
<!-- 7&#45;&gt;9 -->
<g id="edge6" class="edge">
<title>7&#45;&gt;9</title>
<path fill="none" stroke="black" d="M467.29,-96.13C476.17,-96.13 487.23,-96.13 497.35,-96.13"/>
<polygon fill="black" stroke="black" points="497.1,-99.63 507.1,-96.13 497.09,-92.63 497.1,-99.63"/>
<text xml:space="preserve" text-anchor="middle" x="488.05" y="-99.33" font-family="Times New Roman,serif" font-size="14.00">a</text>
</g>
<!-- 11 -->
<g id="node7" class="node">
<title>11</title>
<ellipse fill="none" stroke="black" cx="609.68" cy="-96.13" rx="20.13" ry="20.13"/>
<ellipse fill="none" stroke="black" cx="609.68" cy="-96.13" rx="24.13" ry="24.13"/>
<text xml:space="preserve" text-anchor="middle" x="609.68" y="-91.08" font-family="Times New Roman,serif" font-size="14.00">11</text>
</g>
<!-- 9&#45;&gt;11 -->
<g id="edge7" class="edge">
<title>9&#45;&gt;11</title>
<path fill="none" stroke="black" d="M545.54,-96.13C553.78,-96.13 563.9,-96.13 573.61,-96.13"/>
<polygon fill="black" stroke="black" points="573.59,-99.63 583.59,-96.13 573.59,-92.63 573.59,-99.63"/>
<text xml:space="preserve" text-anchor="middle" x="565.3" y="-99.33" font-family="Times New Roman,serif" font-size="14.00">r</text>
</g>
<!-- 13 -->
<g id="node8" class="node">
<title>13</title>
<ellipse fill="none" stroke="black" cx="194.14" cy="-30.13" rx="20.13" ry="20.13"/>
<text xml:space="preserve" text-anchor="middle" x="194.14" y="-25.08" font-family="Times New Roman,serif" font-size="14.00">13</text>
</g>
<!-- 15 -->
<g id="node9" class="node">
<title>15</title>
<ellipse fill="none" stroke="black" cx="277.16" cy="-24.13" rx="20.13" ry="20.13"/>
<text xml:space="preserve" text-anchor="middle" x="277.16" y="-19.08" font-family="Times New Roman,serif" font-size="14.00">15</text>
</g>
<!-- 13&#45;&gt;15 -->
<g id="edge8" class="edge">
<title>13&#45;&gt;15</title>
<path fill="none" stroke="black" d="M214.34,-28.71C223.66,-28.02 235.07,-27.17 245.55,-26.4"/>
<polygon fill="black" stroke="black" points="245.59,-29.9 255.3,-25.68 245.07,-22.92 245.59,-29.9"/>
<text xml:space="preserve" text-anchor="middle" x="235.65" y="-30.51" font-family="Times New Roman,serif" font-size="14.00">a</text>
</g>
<!-- 17 -->
<g id="node10" class="node">
<title>17</title>
<ellipse fill="none" stroke="black" cx="364.17" cy="-24.13" rx="20.13" ry="20.13"/>
<ellipse fill="none" stroke="black" cx="364.17" cy="-24.13" rx="24.13" ry="24.13"/>
<text xml:space="preserve" text-anchor="middle" x="364.17" y="-19.08" font-family="Times New Roman,serif" font-size="14.00">17</text>
</g>
<!-- 15&#45;&gt;17 -->
<g id="edge9" class="edge">
<title>15&#45;&gt;17</title>
<path fill="none" stroke="black" d="M297.45,-24.13C306.56,-24.13 317.72,-24.13 328.25,-24.13"/>
<polygon fill="black" stroke="black" points="328.2,-27.63 338.2,-24.13 328.2,-20.63 328.2,-27.63"/>
<text xml:space="preserve" text-anchor="middle" x="318.66" y="-27.33" font-family="Times New Roman,serif" font-size="14.00">z</text>
</g>
<!-- 18&#45;&gt;1 -->
<g id="edge10" class="edge">
<title>18&#45;&gt;1</title>
<path fill="none" stroke="black" d="M128.53,-90.86C140.17,-98.47 155.99,-108.82 169.06,-117.38"/>
<polygon fill="black" stroke="black" points="166.86,-120.12 177.14,-122.66 170.69,-114.26 166.86,-120.12"/>
<text xml:space="preserve" text-anchor="middle" x="152.64" y="-111.42" font-family="Times New Roman,serif" font-size="14.00">f</text>
</g>
<!-- 18&#45;&gt;7 -->
<g id="edge12" class="edge">
<title>18&#45;&gt;7</title>
<path fill="none" stroke="black" d="M131.45,-80.13C147.86,-80.13 172.05,-80.13 193.14,-80.13 193.14,-80.13 193.14,-80.13 365.17,-80.13 383.92,-80.13 404.63,-84.13 420.66,-88.13"/>
<polygon fill="black" stroke="black" points="419.38,-91.41 429.94,-90.59 421.18,-84.64 419.38,-91.41"/>
<text xml:space="preserve" text-anchor="middle" x="277.16" y="-83.33" font-family="Times New Roman,serif" font-size="14.00">b</text>
</g>
<!-- 18&#45;&gt;13 -->
<g id="edge11" class="edge">
<title>18&#45;&gt;13</title>
<path fill="none" stroke="black" d="M126.61,-66.69C133.21,-60.99 141.31,-54.54 149.26,-49.63 154.06,-46.67 159.39,-43.91 164.64,-41.45"/>
<polygon fill="black" stroke="black" points="165.95,-44.7 173.7,-37.48 163.13,-38.29 165.95,-44.7"/>
<text xml:space="preserve" text-anchor="middle" x="152.64" y="-52.83" font-family="Times New Roman,serif" font-size="14.00">b</text>
</g>
</g>
</svg>
