<?xml version="1.0" encoding="UTF-8" standalone="no"?>
<!DOCTYPE svg PUBLIC "-//W3C//DTD SVG 1.1//EN"
 "http://www.w3.org/Graphics/SVG/1.1/DTD/svg11.dtd">
<!-- Generated by graphviz version 14.0.1 (20251006.0113)
 -->
<!-- Pages: 1 -->
<svg width="1486pt" height="200pt"
 viewBox="0.00 0.00 1486.00 200.00" xmlns="http://www.w3.org/2000/svg" xmlns:xlink="http://www.w3.org/1999/xlink">
<g id="graph0" class="graph" transform="scale(1 1) rotate(0) translate(4 196.13)">
<polygon fill="white" stroke="none" points="-4,4 -4,-196.13 1482.05,-196.13 1482.05,4 -4,4"/>
<g id="node1" class="node">
<title></title>
</g>
<!-- 0 -->
<g id="node2" class="node">
<title>0</title>
<ellipse fill="none" stroke="black" cx="109" cy="-68.13" rx="18" ry="18"/>
<text xml:space="preserve" text-anchor="middle" x="109" y="-63.08" font-family="Times New Roman,serif" font-size="14.00">0</text>
</g>
<!-- &#45;&gt;0 -->
<g id="edge1" class="edge">
<title>&#45;&gt;0</title>
<path fill="none" stroke="black" d="M53.75,-68.13C61.85,-68.13 70.85,-68.13 79.16,-68.13"/>
<polygon fill="black" stroke="black" points="79.12,-71.63 89.12,-68.13 79.12,-64.63 79.12,-71.63"/>
</g>
<!-- 12 -->
<g id="node14" class="node">
<title>12</title>
<ellipse fill="none" stroke="black" cx="290.38" cy="-68.13" rx="20.13" ry="20.13"/>
<text xml:space="preserve" text-anchor="middle" x="290.38" y="-63.08" font-family="Times New Roman,serif" font-size="14.00">12</text>
</g>
<!-- 0&#45;&gt;12 -->
<g id="edge17" class="edge">
<title>0&#45;&gt;12</title>
<path fill="none" stroke="black" d="M127.2,-68.13C157.43,-68.13 220.46,-68.13 258.43,-68.13"/>
<polygon fill="black" stroke="black" points="258.29,-71.63 268.29,-68.13 258.29,-64.63 258.29,-71.63"/>
<text xml:space="preserve" text-anchor="middle" x="198.62" y="-72.08" font-family="Times New Roman,serif" font-size="14.00">⟨begin group 0⟩</text>
</g>
<!-- 1 -->
<g id="node3" class="node">
<title>1</title>
<ellipse fill="none" stroke="black" cx="471.76" cy="-121.13" rx="18" ry="18"/>
<text xml:space="preserve" text-anchor="middle" x="471.76" y="-116.08" font-family="Times New Roman,serif" font-size="14.00">1</text>
</g>
<!-- 2 -->
<g id="node4" class="node">
<title>2</title>
<ellipse fill="none" stroke="black" cx="551.89" cy="-170.13" rx="18" ry="18"/>
<text xml:space="preserve" text-anchor="middle" x="551.89" y="-165.08" font-family="Times New Roman,serif" font-size="14.00">2</text>
</g>
<!-- 1&#45;&gt;2 -->
<g id="edge2" class="edge">
<title>1&#45;&gt;2</title>
<path fill="none" stroke="black" d="M487.46,-130.35C498.41,-137.22 513.62,-146.75 526.4,-154.77"/>
<polygon fill="black" stroke="black" points="524.38,-157.64 534.72,-159.99 528.1,-151.71 524.38,-157.64"/>
<text xml:space="preserve" text-anchor="middle" x="510.76" y="-148.83" font-family="Times New Roman,serif" font-size="14.00">f</text>
</g>
<!-- 3 -->
<g id="node5" class="node">
<title>3</title>
<ellipse fill="none" stroke="black" cx="668.4" cy="-174.13" rx="18" ry="18"/>
<text xml:space="preserve" text-anchor="middle" x="668.4" y="-169.08" font-family="Times New Roman,serif" font-size="14.00">3</text>
</g>
<!-- 2&#45;&gt;3 -->
<g id="edge3" class="edge">
<title>2&#45;&gt;3</title>
<path fill="none" stroke="black" d="M570.28,-170.74C588.46,-171.37 617.29,-172.38 638.82,-173.13"/>
<polygon fill="black" stroke="black" points="638.59,-176.63 648.71,-173.48 638.84,-169.63 638.59,-176.63"/>
<text xml:space="preserve" text-anchor="middle" x="593.4" y="-174.86" font-family="Times New Roman,serif" font-size="14.00">o</text>
</g>
<!-- 4 -->
<g id="node6" class="node">
<title>4</title>
<ellipse fill="none" stroke="black" cx="816.29" cy="-170.13" rx="18" ry="18"/>
<text xml:space="preserve" text-anchor="middle" x="816.29" y="-165.08" font-family="Times New Roman,serif" font-size="14.00">4</text>
</g>
<!-- 3&#45;&gt;4 -->
<g id="edge4" class="edge">
<title>3&#45;&gt;4</title>
<path fill="none" stroke="black" d="M686.71,-173.66C711.38,-172.98 756.98,-171.73 786.71,-170.91"/>
<polygon fill="black" stroke="black" points="786.59,-174.42 796.49,-170.65 786.4,-167.42 786.59,-174.42"/>
<text xml:space="preserve" text-anchor="middle" x="760.16" y="-175.33" font-family="Times New Roman,serif" font-size="14.00">o</text>
</g>
<!-- 5 -->
<g id="node7" class="node">
<title>5</title>
<ellipse fill="none" stroke="black" cx="985.04" cy="-121.13" rx="18" ry="18"/>
<text xml:space="preserve" text-anchor="middle" x="985.04" y="-116.08" font-family="Times New Roman,serif" font-size="14.00">5</text>
</g>
<!-- 4&#45;&gt;5 -->
<g id="edge5" class="edge">
<title>4&#45;&gt;5</title>
<path fill="none" stroke="black" d="M834.12,-166.35C859.35,-160.52 908.38,-148.61 949.04,-135.13 951.81,-134.21 954.68,-133.19 957.53,-132.12"/>
<polygon fill="black" stroke="black" points="958.72,-135.42 966.75,-128.51 956.16,-128.9 958.72,-135.42"/>
<text xml:space="preserve" text-anchor="middle" x="900.66" y="-165.92" font-family="Times New Roman,serif" font-size="14.00">⟨end group 1⟩</text>
</g>
<!-- 5&#45;&gt;1 -->
<g id="edge7" class="edge">
<title>5&#45;&gt;1</title>
<path fill="none" stroke="black" d="M966.99,-121.13C936.82,-121.13 872,-121.13 817.29,-121.13 550.89,-121.13 550.89,-121.13 550.89,-121.13 534.57,-121.13 516.34,-121.13 501.59,-121.13"/>
<polygon fill="black" stroke="black" points="501.65,-117.63 491.65,-121.13 501.65,-124.63 501.65,-117.63"/>
<text xml:space="preserve" text-anchor="middle" x="668.4" y="-125.08" font-family="Times New Roman,serif" font-size="14.00">⟨begin group 1⟩</text>
</g>
<!-- 6 -->
<g id="node8" class="node">
<title>6</title>
<ellipse fill="none" stroke="black" cx="1094.16" cy="-73.13" rx="18" ry="18"/>
<text xml:space="preserve" text-anchor="middle" x="1094.16" y="-68.08" font-family="Times New Roman,serif" font-size="14.00">6</text>
</g>
<!-- 5&#45;&gt;6 -->
<g id="edge6" class="edge">
<title>5&#45;&gt;6</title>
<path fill="none" stroke="black" d="M1001.84,-114.05C1018.93,-106.39 1046.45,-94.06 1066.82,-84.93"/>
<polygon fill="black" stroke="black" points="1068.21,-88.14 1075.91,-80.86 1065.35,-81.76 1068.21,-88.14"/>
<text xml:space="preserve" text-anchor="middle" x="1024.41" y="-107.44" font-family="Times New Roman,serif" font-size="14.00">b</text>
</g>
<!-- 7 -->
<g id="node9" class="node">
<title>7</title>
<ellipse fill="none" stroke="black" cx="1202.54" cy="-69.13" rx="18" ry="18"/>
<text xml:space="preserve" text-anchor="middle" x="1202.54" y="-64.08" font-family="Times New Roman,serif" font-size="14.00">7</text>
</g>
<!-- 6&#45;&gt;7 -->
<g id="edge8" class="edge">
<title>6&#45;&gt;7</title>
<path fill="none" stroke="black" d="M1112.25,-72.49C1128.52,-71.88 1153.31,-70.94 1172.64,-70.22"/>
<polygon fill="black" stroke="black" points="1172.76,-73.72 1182.62,-69.84 1172.5,-66.72 1172.76,-73.72"/>
<text xml:space="preserve" text-anchor="middle" x="1163.54" y="-73.86" font-family="Times New Roman,serif" font-size="14.00">a</text>
</g>
<!-- 8 -->
<g id="node10" class="node">
<title>8</title>
<ellipse fill="none" stroke="black" cx="1279.04" cy="-66.13" rx="18" ry="18"/>
<text xml:space="preserve" text-anchor="middle" x="1279.04" y="-61.08" font-family="Times New Roman,serif" font-size="14.00">8</text>
</g>
<!-- 7&#45;&gt;8 -->
<g id="edge9" class="edge">
<title>7&#45;&gt;8</title>
<path fill="none" stroke="black" d="M1220.82,-68.44C1229.22,-68.1 1239.54,-67.68 1249.1,-67.3"/>
<polygon fill="black" stroke="black" points="1249.23,-70.79 1259.08,-66.89 1248.95,-63.8 1249.23,-70.79"/>
<text xml:space="preserve" text-anchor="middle" x="1240.79" y="-70.92" font-family="Times New Roman,serif" font-size="14.00">r</text>
</g>
<!-- 13 -->
<g id="node15" class="node">
<title>13</title>
<ellipse fill="none" stroke="black" cx="1453.92" cy="-36.13" rx="20.13" ry="20.13"/>
<ellipse fill="none" stroke="black" cx="1453.92" cy="-36.13" rx="24.13" ry="24.13"/>
<text xml:space="preserve" text-anchor="middle" x="1453.92" y="-31.08" font-family="Times New Roman,serif" font-size="14.00">13</text>
</g>
<!-- 8&#45;&gt;13 -->
<g id="edge10" class="edge">
<title>8&#45;&gt;13</title>
<path fill="none" stroke="black" d="M1297.25,-63.14C1325.45,-58.25 1382.04,-48.43 1418.66,-42.08"/>
<polygon fill="black" stroke="black" points="1419.04,-45.56 1428.3,-40.4 1417.84,-38.67 1419.04,-45.56"/>
<text xml:space="preserve" text-anchor="middle" x="1363.41" y="-63.6" font-family="Times New Roman,serif" font-size="14.00">⟨end group 0⟩</text>
</g>
<!-- 9 -->
<g id="node11" class="node">
<title>9</title>
<ellipse fill="none" stroke="black" cx="471.76" cy="-22.13" rx="18" ry="18"/>
<text xml:space="preserve" text-anchor="middle" x="471.76" y="-17.08" font-family="Times New Roman,serif" font-size="14.00">9</text>
</g>
<!-- 10 -->
<g id="node12" class="node">
<title>10</title>
<ellipse fill="none" stroke="black" cx="551.89" cy="-20.13" rx="20.13" ry="20.13"/>
<text xml:space="preserve" text-anchor="middle" x="551.89" y="-15.08" font-family="Times New Roman,serif" font-size="14.00">10</text>
</g>
<!-- 9&#45;&gt;10 -->
<g id="edge11" class="edge">
<title>9&#45;&gt;10</title>
<path fill="none" stroke="black" d="M490.1,-21.69C498.89,-21.46 509.83,-21.18 520,-20.92"/>
<polygon fill="black" stroke="black" points="519.98,-24.42 529.89,-20.67 519.8,-17.43 519.98,-24.42"/>
<text xml:space="preserve" text-anchor="middle" x="510.76" y="-24.39" font-family="Times New Roman,serif" font-size="14.00">a</text>
</g>
<!-- 11 -->
<g id="node13" class="node">
<title>11</title>
<ellipse fill="none" stroke="black" cx="760.16" cy="-20.13" rx="20.13" ry="20.13"/>
<text xml:space="preserve" text-anchor="middle" x="760.16" y="-15.08" font-family="Times New Roman,serif" font-size="14.00">11</text>
</g>
<!-- 10&#45;&gt;11 -->
<g id="edge12" class="edge">
<title>10&#45;&gt;11</title>
<path fill="none" stroke="black" d="M572.3,-20.13C608.15,-20.13 685.06,-20.13 728.19,-20.13"/>
<polygon fill="black" stroke="black" points="728.14,-23.63 738.14,-20.13 728.14,-16.63 728.14,-23.63"/>
<text xml:space="preserve" text-anchor="middle" x="593.4" y="-23.33" font-family="Times New Roman,serif" font-size="14.00">z</text>
</g>
<!-- 11&#45;&gt;13 -->
<g id="edge13" class="edge">
<title>11&#45;&gt;13</title>
<path fill="none" stroke="black" d="M780.43,-20.13C807.18,-20.13 857.1,-20.13 899.66,-20.13 899.66,-20.13 899.66,-20.13 1280.04,-20.13 1328.38,-20.13 1384,-26.41 1418.81,-31.1"/>
<polygon fill="black" stroke="black" points="1417.89,-34.51 1428.27,-32.41 1418.85,-27.57 1417.89,-34.51"/>
<text xml:space="preserve" text-anchor="middle" x="1094.16" y="-24.08" font-family="Times New Roman,serif" font-size="14.00">⟨end group 0⟩</text>
</g>
<!-- 12&#45;&gt;1 -->
<g id="edge16" class="edge">
<title>12&#45;&gt;1</title>
<path fill="none" stroke="black" d="M309.39,-75.31C315.43,-77.61 322.22,-80.09 328.51,-82.13 367.9,-94.92 414.29,-107.12 443.12,-114.36"/>
<polygon fill="black" stroke="black" points="441.95,-117.68 452.5,-116.7 443.64,-110.89 441.95,-117.68"/>
<text xml:space="preserve" text-anchor="middle" x="382.14" y="-116.44" font-family="Times New Roman,serif" font-size="14.00">⟨begin group 1⟩</text>
</g>
<!-- 12&#45;&gt;6 -->
<g id="edge15" class="edge">
<title>12&#45;&gt;6</title>
<path fill="none" stroke="black" d="M310.76,-68.13C343.65,-68.13 412.53,-68.13 470.76,-68.13 470.76,-68.13 470.76,-68.13 986.04,-68.13 1012.62,-68.13 1042.87,-69.69 1064.43,-71.06"/>
<polygon fill="black" stroke="black" points="1064.01,-74.54 1074.22,-71.72 1064.48,-67.56 1064.01,-74.54"/>
<text xml:space="preserve" text-anchor="middle" x="668.4" y="-71.33" font-family="Times New Roman,serif" font-size="14.00">b</text>
</g>
<!-- 12&#45;&gt;9 -->
<g id="edge14" class="edge">
<title>12&#45;&gt;9</title>
<path fill="none" stroke="black" d="M304.89,-53.79C311.42,-47.77 319.75,-41.32 328.51,-37.63 365.55,-22.06 412.56,-19.97 442.16,-20.55"/>
<polygon fill="black" stroke="black" points="441.71,-24.04 451.82,-20.87 441.94,-17.04 441.71,-24.04"/>
<text xml:space="preserve" text-anchor="middle" x="382.14" y="-40.83" font-family="Times New Roman,serif" font-size="14.00">b</text>
</g>
</g>
</svg>
