<?xml version="1.0" encoding="UTF-8" standalone="no"?>
<!DOCTYPE svg PUBLIC "-//W3C//DTD SVG 1.1//EN"
 "http://www.w3.org/Graphics/SVG/1.1/DTD/svg11.dtd">
<!-- Generated by graphviz version 14.0.1 (20251006.0113)
 -->
<!-- Pages: 1 -->
<svg width="260pt" height="404pt"
 viewBox="0.00 0.00 260.00 404.00" xmlns="http://www.w3.org/2000/svg" xmlns:xlink="http://www.w3.org/1999/xlink">
<g id="graph0" class="graph" transform="scale(1 1) rotate(0) translate(4 400)">
<polygon fill="white" stroke="none" points="-4,4 -4,-400 256,-400 256,4 -4,4"/>
<!-- node1670591339296 -->
<g id="node1" class="node">
<title>node1670591339296</title>
<ellipse fill="none" stroke="black" cx="99" cy="-378" rx="18" ry="18"/>
<text xml:space="preserve" text-anchor="middle" x="99" y="-372.95" font-family="Times New Roman,serif" font-size="14.00">|</text>
</g>
<!-- node1670591339200 -->
<g id="node2" class="node">
<title>node1670591339200</title>
<ellipse fill="none" stroke="black" cx="72" cy="-306" rx="18" ry="18"/>
<text xml:space="preserve" text-anchor="middle" x="72" y="-300.95" font-family="Times New Roman,serif" font-size="14.00">·</text>
</g>
<!-- node1670591339296&#45;&#45;node1670591339200 -->
<g id="edge1" class="edge">
<title>node1670591339296&#45;&#45;node1670591339200</title>
<path fill="none" stroke="black" d="M92.74,-360.76C88.38,-349.46 82.58,-334.44 78.23,-323.15"/>
</g>
<!-- node1670591340208 -->
<g id="node3" class="node">
<title>node1670591340208</title>
<ellipse fill="none" stroke="black" cx="126" cy="-306" rx="18" ry="18"/>
<text xml:space="preserve" text-anchor="middle" x="126" y="-300.95" font-family="Times New Roman,serif" font-size="14.00">·</text>
</g>
<!-- node1670591339296&#45;&#45;node1670591340208 -->
<g id="edge2" class="edge">
<title>node1670591339296&#45;&#45;node1670591340208</title>
<path fill="none" stroke="black" d="M105.26,-360.76C109.62,-349.46 115.42,-334.44 119.77,-323.15"/>
</g>
<!-- node1670591338816 -->
<g id="node4" class="node">
<title>node1670591338816</title>
<ellipse fill="none" stroke="black" cx="18" cy="-234" rx="18" ry="18"/>
<text xml:space="preserve" text-anchor="middle" x="18" y="-228.95" font-family="Times New Roman,serif" font-size="14.00">*</text>
</g>
<!-- node1670591339200&#45;&#45;node1670591338816 -->
<g id="edge3" class="edge">
<title>node1670591339200&#45;&#45;node1670591338816</title>
<path fill="none" stroke="black" d="M61.33,-291.17C51.86,-278.9 38.11,-261.06 28.65,-248.8"/>
</g>
<!-- node1670591339104 -->
<g id="node5" class="node">
<title>node1670591339104</title>
<ellipse fill="none" stroke="black" cx="72" cy="-234" rx="18" ry="18"/>
<text xml:space="preserve" text-anchor="middle" x="72" y="-228.95" font-family="Times New Roman,serif" font-size="14.00">·</text>
</g>
<!-- node1670591339200&#45;&#45;node1670591339104 -->
<g id="edge4" class="edge">
<title>node1670591339200&#45;&#45;node1670591339104</title>
<path fill="none" stroke="black" d="M72,-287.7C72,-276.85 72,-262.92 72,-252.1"/>
</g>
<!-- node1670591339248 -->
<g id="node15" class="node">
<title>node1670591339248</title>
<ellipse fill="none" stroke="black" cx="126" cy="-234" rx="18" ry="18"/>
<text xml:space="preserve" text-anchor="middle" x="126" y="-228.95" font-family="Times New Roman,serif" font-size="14.00">b</text>
</g>
<!-- node1670591340208&#45;&#45;node1670591339248 -->
<g id="edge14" class="edge">
<title>node1670591340208&#45;&#45;node1670591339248</title>
<path fill="none" stroke="black" d="M126,-287.7C126,-276.85 126,-262.92 126,-252.1"/>
</g>
<!-- node1670591339008 -->
<g id="node16" class="node">
<title>node1670591339008</title>
<ellipse fill="none" stroke="black" cx="180" cy="-234" rx="18" ry="18"/>
<text xml:space="preserve" text-anchor="middle" x="180" y="-228.95" font-family="Times New Roman,serif" font-size="14.00">·</text>
</g>
<!-- node1670591340208&#45;&#45;node1670591339008 -->
<g id="edge15" class="edge">
<title>node1670591340208&#45;&#45;node1670591339008</title>
<path fill="none" stroke="black" d="M136.67,-291.17C146.14,-278.9 159.89,-261.06 169.35,-248.8"/>
</g>
<!-- node1670591338768 -->
<g id="node6" class="node">
<title>node1670591338768</title>
<ellipse fill="none" stroke="black" cx="18" cy="-162" rx="18" ry="18"/>
<text xml:space="preserve" text-anchor="middle" x="18" y="-156.95" font-family="Times New Roman,serif" font-size="14.00">·</text>
</g>
<!-- node1670591338816&#45;&#45;node1670591338768 -->
<g id="edge5" class="edge">
<title>node1670591338816&#45;&#45;node1670591338768</title>
<path fill="none" stroke="black" d="M18,-215.7C18,-204.85 18,-190.92 18,-180.1"/>
</g>
<!-- node1670591338864 -->
<g id="node11" class="node">
<title>node1670591338864</title>
<ellipse fill="none" stroke="black" cx="72" cy="-162" rx="18" ry="18"/>
<text xml:space="preserve" text-anchor="middle" x="72" y="-156.95" font-family="Times New Roman,serif" font-size="14.00">b</text>
</g>
<!-- node1670591339104&#45;&#45;node1670591338864 -->
<g id="edge10" class="edge">
<title>node1670591339104&#45;&#45;node1670591338864</title>
<path fill="none" stroke="black" d="M72,-215.7C72,-204.85 72,-190.92 72,-180.1"/>
</g>
<!-- node1670591339056 -->
<g id="node12" class="node">
<title>node1670591339056</title>
<ellipse fill="none" stroke="black" cx="126" cy="-162" rx="18" ry="18"/>
<text xml:space="preserve" text-anchor="middle" x="126" y="-156.95" font-family="Times New Roman,serif" font-size="14.00">·</text>
</g>
<!-- node1670591339104&#45;&#45;node1670591339056 -->
<g id="edge11" class="edge">
<title>node1670591339104&#45;&#45;node1670591339056</title>
<path fill="none" stroke="black" d="M82.67,-219.17C92.14,-206.9 105.89,-189.06 115.35,-176.8"/>
</g>
<!-- node1670564935200 -->
<g id="node7" class="node">
<title>node1670564935200</title>
<ellipse fill="none" stroke="black" cx="18" cy="-90" rx="18" ry="18"/>
<text xml:space="preserve" text-anchor="middle" x="18" y="-84.95" font-family="Times New Roman,serif" font-size="14.00">f</text>
</g>
<!-- node1670591338768&#45;&#45;node1670564935200 -->
<g id="edge6" class="edge">
<title>node1670591338768&#45;&#45;node1670564935200</title>
<path fill="none" stroke="black" d="M18,-143.7C18,-132.85 18,-118.92 18,-108.1"/>
</g>
<!-- node1670591338720 -->
<g id="node8" class="node">
<title>node1670591338720</title>
<ellipse fill="none" stroke="black" cx="72" cy="-90" rx="18" ry="18"/>
<text xml:space="preserve" text-anchor="middle" x="72" y="-84.95" font-family="Times New Roman,serif" font-size="14.00">·</text>
</g>
<!-- node1670591338768&#45;&#45;node1670591338720 -->
<g id="edge7" class="edge">
<title>node1670591338768&#45;&#45;node1670591338720</title>
<path fill="none" stroke="black" d="M28.67,-147.17C38.14,-134.9 51.89,-117.06 61.35,-104.8"/>
</g>
<!-- node1670591338576 -->
<g id="node9" class="node">
<title>node1670591338576</title>
<ellipse fill="none" stroke="black" cx="45" cy="-18" rx="18" ry="18"/>
<text xml:space="preserve" text-anchor="middle" x="45" y="-12.95" font-family="Times New Roman,serif" font-size="14.00">o</text>
</g>
<!-- node1670591338720&#45;&#45;node1670591338576 -->
<g id="edge8" class="edge">
<title>node1670591338720&#45;&#45;node1670591338576</title>
<path fill="none" stroke="black" d="M65.74,-72.76C61.38,-61.46 55.58,-46.44 51.23,-35.15"/>
</g>
<!-- node1670591338672 -->
<g id="node10" class="node">
<title>node1670591338672</title>
<ellipse fill="none" stroke="black" cx="99" cy="-18" rx="18" ry="18"/>
<text xml:space="preserve" text-anchor="middle" x="99" y="-12.95" font-family="Times New Roman,serif" font-size="14.00">o</text>
</g>
<!-- node1670591338720&#45;&#45;node1670591338672 -->
<g id="edge9" class="edge">
<title>node1670591338720&#45;&#45;node1670591338672</title>
<path fill="none" stroke="black" d="M78.26,-72.76C82.62,-61.46 88.42,-46.44 92.77,-35.15"/>
</g>
<!-- node1670591338912 -->
<g id="node13" class="node">
<title>node1670591338912</title>
<ellipse fill="none" stroke="black" cx="126" cy="-90" rx="18" ry="18"/>
<text xml:space="preserve" text-anchor="middle" x="126" y="-84.95" font-family="Times New Roman,serif" font-size="14.00">a</text>
</g>
<!-- node1670591339056&#45;&#45;node1670591338912 -->
<g id="edge12" class="edge">
<title>node1670591339056&#45;&#45;node1670591338912</title>
<path fill="none" stroke="black" d="M126,-143.7C126,-132.85 126,-118.92 126,-108.1"/>
</g>
<!-- node1670591338960 -->
<g id="node14" class="node">
<title>node1670591338960</title>
<ellipse fill="none" stroke="black" cx="180" cy="-90" rx="18" ry="18"/>
<text xml:space="preserve" text-anchor="middle" x="180" y="-84.95" font-family="Times New Roman,serif" font-size="14.00">r</text>
</g>
<!-- node1670591339056&#45;&#45;node1670591338960 -->
<g id="edge13" class="edge">
<title>node1670591339056&#45;&#45;node1670591338960</title>
<path fill="none" stroke="black" d="M136.67,-147.17C146.14,-134.9 159.89,-117.06 169.35,-104.8"/>
</g>
<!-- node1670591339152 -->
<g id="node17" class="node">
<title>node1670591339152</title>
<ellipse fill="none" stroke="black" cx="180" cy="-162" rx="18" ry="18"/>
<text xml:space="preserve" text-anchor="middle" x="180" y="-156.95" font-family="Times New Roman,serif" font-size="14.00">a</text>
</g>
<!-- node1670591339008&#45;&#45;node1670591339152 -->
<g id="edge16" class="edge">
<title>node1670591339008&#45;&#45;node1670591339152</title>
<path fill="none" stroke="black" d="M180,-215.7C180,-204.85 180,-190.92 180,-180.1"/>
</g>
<!-- node1670591339440 -->
<g id="node18" class="node">
<title>node1670591339440</title>
<ellipse fill="none" stroke="black" cx="234" cy="-162" rx="18" ry="18"/>
<text xml:space="preserve" text-anchor="middle" x="234" y="-156.95" font-family="Times New Roman,serif" font-size="14.00">z</text>
</g>
<!-- node1670591339008&#45;&#45;node1670591339440 -->
<g id="edge17" class="edge">
<title>node1670591339008&#45;&#45;node1670591339440</title>
<path fill="none" stroke="black" d="M190.67,-219.17C200.14,-206.9 213.89,-189.06 223.35,-176.8"/>
</g>
</g>
</svg>
